<?xml version="1.0" encoding="UTF-8" standalone="no"?>
<!-- Generator: Adobe Illustrator 19.0.0, SVG Export Plug-In . SVG Version: 6.00 Build 0)  -->

<svg
   version="1.1"
   id="Capa_1"
   x="0px"
   y="0px"
   viewBox="0 0 490.4 490.4"
   style="enable-background:new 0 0 490.4 490.4;"
   xml:space="preserve"
   sodipodi:docname="Magnifying glass.svg"
   inkscape:version="1.1.2 (b8e25be833, 2022-02-05)"
   xmlns:inkscape="http://www.inkscape.org/namespaces/inkscape"
   xmlns:sodipodi="http://sodipodi.sourceforge.net/DTD/sodipodi-0.dtd"
   xmlns="http://www.w3.org/2000/svg"
   xmlns:svg="http://www.w3.org/2000/svg"><defs
   id="defs2648" /><sodipodi:namedview
   id="namedview2646"
   pagecolor="#ffffff"
   bordercolor="#666666"
   borderopacity="1.0"
   inkscape:pageshadow="2"
   inkscape:pageopacity="0.0"
   inkscape:pagecheckerboard="0"
   showgrid="false"
   inkscape:zoom="1.6945351"
   inkscape:cx="259.95331"
   inkscape:cy="172.31865"
   inkscape:window-width="1920"
   inkscape:window-height="1017"
   inkscape:window-x="-8"
   inkscape:window-y="-8"
   inkscape:window-maximized="1"
   inkscape:current-layer="Capa_1" />
<g
   id="g2613">
	<path
   d="M484.1,454.796l-110.5-110.6c29.8-36.3,47.6-82.8,47.6-133.4c0-116.3-94.3-210.6-210.6-210.6S0,94.496,0,210.796   s94.3,210.6,210.6,210.6c50.8,0,97.4-18,133.8-48l110.5,110.5c12.9,11.8,25,4.2,29.2,0C492.5,475.596,492.5,463.096,484.1,454.796z    M41.1,210.796c0-93.6,75.9-169.5,169.5-169.5s169.6,75.9,169.6,169.5s-75.9,169.5-169.5,169.5S41.1,304.396,41.1,210.796z"
   id="path2611" />
</g>
<g
   id="g2615">
</g>
<g
   id="g2617">
</g>
<g
   id="g2619">
</g>
<g
   id="g2621">
</g>
<g
   id="g2623">
</g>
<g
   id="g2625">
</g>
<g
   id="g2627">
</g>
<g
   id="g2629">
</g>
<g
   id="g2631">
</g>
<g
   id="g2633">
</g>
<g
   id="g2635">
</g>
<g
   id="g2637">
</g>
<g
   id="g2639">
</g>
<g
   id="g2641">
</g>
<g
   id="g2643">
</g>
</svg>
